<?xml version="1.0" encoding="utf-8" standalone="no"?>
<!DOCTYPE svg PUBLIC "-//W3C//DTD SVG 1.1//EN"
  "http://www.w3.org/Graphics/SVG/1.1/DTD/svg11.dtd">
<svg xmlns:xlink="http://www.w3.org/1999/xlink" width="720pt" height="432pt" viewBox="0 0 720 432" xmlns="http://www.w3.org/2000/svg" version="1.1">
 <metadata>
  <rdf:RDF xmlns:dc="http://purl.org/dc/elements/1.1/" xmlns:cc="http://creativecommons.org/ns#" xmlns:rdf="http://www.w3.org/1999/02/22-rdf-syntax-ns#">
   <cc:Work>
    <dc:type rdf:resource="http://purl.org/dc/dcmitype/StillImage"/>
    <dc:date>2024-03-10T17:00:20.463443</dc:date>
    <dc:format>image/svg+xml</dc:format>
    <dc:creator>
     <cc:Agent>
      <dc:title>Matplotlib v3.8.3, https://matplotlib.org/</dc:title>
     </cc:Agent>
    </dc:creator>
   </cc:Work>
  </rdf:RDF>
 </metadata>
 <defs>
  <style type="text/css">*{stroke-linejoin: round; stroke-linecap: butt}</style>
 </defs>
 <g id="figure_1">
  <g id="patch_1">
   <path d="M 0 432 
L 720 432 
L 720 0 
L 0 0 
z
" style="fill: #ffffff"/>
  </g>
  <g id="axes_1">
   <g id="patch_2">
    <path d="M 70.76 392.92 
L 705.621429 392.92 
L 705.621429 25.44 
L 70.76 25.44 
z
" style="fill: #ffffff"/>
   </g>
   <g id="patch_3">
    <path d="M 70.76 376.216364 
L 91.562654 376.216364 
L 91.562654 351.470236 
L 70.76 351.470236 
z
" clip-path="url(#pe0fe748706)" style="fill: #87ceeb"/>
   </g>
   <g id="patch_4">
    <path d="M 70.76 345.283704 
L 102.606434 345.283704 
L 102.606434 320.537576 
L 70.76 320.537576 
z
" clip-path="url(#pe0fe748706)" style="fill: #87ceeb"/>
   </g>
   <g id="patch_5">
    <path d="M 70.76 314.351044 
L 121.035417 314.351044 
L 121.035417 289.604916 
L 70.76 289.604916 
z
" clip-path="url(#pe0fe748706)" style="fill: #87ceeb"/>
   </g>
   <g id="patch_6">
    <path d="M 70.76 283.418384 
L 140.252954 283.418384 
L 140.252954 258.672256 
L 70.76 258.672256 
z
" clip-path="url(#pe0fe748706)" style="fill: #87ceeb"/>
   </g>
   <g id="patch_7">
    <path d="M 70.76 252.485724 
L 148.702907 252.485724 
L 148.702907 227.739596 
L 70.76 227.739596 
z
" clip-path="url(#pe0fe748706)" style="fill: #87ceeb"/>
   </g>
   <g id="patch_8">
    <path d="M 70.76 221.553064 
L 157.377017 221.553064 
L 157.377017 196.806936 
L 70.76 196.806936 
z
" clip-path="url(#pe0fe748706)" style="fill: #87ceeb"/>
   </g>
   <g id="patch_9">
    <path d="M 70.76 190.620404 
L 206.72378 190.620404 
L 206.72378 165.874276 
L 70.76 165.874276 
z
" clip-path="url(#pe0fe748706)" style="fill: #87ceeb"/>
   </g>
   <g id="patch_10">
    <path d="M 70.76 159.687744 
L 244.81061 159.687744 
L 244.81061 134.941616 
L 70.76 134.941616 
z
" clip-path="url(#pe0fe748706)" style="fill: #87ceeb"/>
   </g>
   <g id="patch_11">
    <path d="M 70.76 128.755084 
L 408.826151 128.755084 
L 408.826151 104.008956 
L 70.76 104.008956 
z
" clip-path="url(#pe0fe748706)" style="fill: #87ceeb"/>
   </g>
   <g id="patch_12">
    <path d="M 70.76 97.822424 
L 572.017111 97.822424 
L 572.017111 73.076296 
L 70.76 73.076296 
z
" clip-path="url(#pe0fe748706)" style="fill: #87ceeb"/>
   </g>
   <g id="patch_13">
    <path d="M 70.76 66.889764 
L 675.389932 66.889764 
L 675.389932 42.143636 
L 70.76 42.143636 
z
" clip-path="url(#pe0fe748706)" style="fill: #87ceeb"/>
   </g>
   <g id="matplotlib.axis_1">
    <g id="xtick_1">
     <g id="line2d_1">
      <defs>
       <path id="m58f8ae6ab6" d="M 0 0 
L 0 3.5 
" style="stroke: #000000; stroke-width: 0.8"/>
      </defs>
      <g>
       <use xlink:href="#m58f8ae6ab6" x="70.76" y="392.92" style="stroke: #000000; stroke-width: 0.8"/>
      </g>
     </g>
     <g id="text_1">
      <!-- 0 -->
      <g transform="translate(68.26 406.795) scale(0.1 -0.1)">
       <defs>
        <path id="SimHei-30" d="M 225 2537 
Q 250 3200 412 3587 
Q 575 3975 875 4225 
Q 1175 4475 1612 4475 
Q 2050 4475 2375 4112 
Q 2700 3750 2800 3200 
Q 2900 2650 2862 1937 
Q 2825 1225 2612 775 
Q 2400 325 1975 150 
Q 1550 -25 1125 187 
Q 700 400 525 750 
Q 350 1100 275 1487 
Q 200 1875 225 2537 
z
M 750 2687 
Q 675 2000 800 1462 
Q 925 925 1212 700 
Q 1500 475 1800 612 
Q 2100 750 2237 1162 
Q 2375 1575 2375 2062 
Q 2375 2550 2337 2950 
Q 2300 3350 2112 3675 
Q 1925 4000 1612 4012 
Q 1300 4025 1062 3700 
Q 825 3375 750 2687 
z
" transform="scale(0.015625)"/>
       </defs>
       <use xlink:href="#SimHei-30"/>
      </g>
     </g>
    </g>
    <g id="xtick_2">
     <g id="line2d_2">
      <g>
       <use xlink:href="#m58f8ae6ab6" x="150.816396" y="392.92" style="stroke: #000000; stroke-width: 0.8"/>
      </g>
     </g>
     <g id="text_2">
      <!-- 20000 -->
      <g transform="translate(138.316396 406.795) scale(0.1 -0.1)">
       <defs>
        <path id="SimHei-32" d="M 300 250 
Q 325 625 650 925 
Q 975 1225 1475 1862 
Q 1975 2500 2125 2850 
Q 2275 3200 2237 3450 
Q 2200 3700 2000 3862 
Q 1800 4025 1537 4000 
Q 1275 3975 1037 3800 
Q 800 3625 675 3275 
L 200 3350 
Q 400 3925 712 4187 
Q 1025 4450 1450 4475 
Q 1700 4500 1900 4462 
Q 2100 4425 2312 4287 
Q 2525 4150 2662 3875 
Q 2800 3600 2762 3212 
Q 2725 2825 2375 2287 
Q 2025 1750 1025 600 
L 2825 600 
L 2825 150 
L 300 150 
L 300 250 
z
" transform="scale(0.015625)"/>
       </defs>
       <use xlink:href="#SimHei-32"/>
       <use xlink:href="#SimHei-30" x="50"/>
       <use xlink:href="#SimHei-30" x="100"/>
       <use xlink:href="#SimHei-30" x="150"/>
       <use xlink:href="#SimHei-30" x="200"/>
      </g>
     </g>
    </g>
    <g id="xtick_3">
     <g id="line2d_3">
      <g>
       <use xlink:href="#m58f8ae6ab6" x="230.872792" y="392.92" style="stroke: #000000; stroke-width: 0.8"/>
      </g>
     </g>
     <g id="text_3">
      <!-- 40000 -->
      <g transform="translate(218.372792 406.795) scale(0.1 -0.1)">
       <defs>
        <path id="SimHei-34" d="M 2000 1100 
L 75 1100 
L 75 1525 
L 2100 4450 
L 2475 4450 
L 2475 1525 
L 3075 1525 
L 3075 1100 
L 2475 1100 
L 2475 150 
L 2000 150 
L 2000 1100 
z
M 2000 1525 
L 2000 3500 
L 600 1525 
L 2000 1525 
z
" transform="scale(0.015625)"/>
       </defs>
       <use xlink:href="#SimHei-34"/>
       <use xlink:href="#SimHei-30" x="50"/>
       <use xlink:href="#SimHei-30" x="100"/>
       <use xlink:href="#SimHei-30" x="150"/>
       <use xlink:href="#SimHei-30" x="200"/>
      </g>
     </g>
    </g>
    <g id="xtick_4">
     <g id="line2d_4">
      <g>
       <use xlink:href="#m58f8ae6ab6" x="310.929187" y="392.92" style="stroke: #000000; stroke-width: 0.8"/>
      </g>
     </g>
     <g id="text_4">
      <!-- 60000 -->
      <g transform="translate(298.429187 406.795) scale(0.1 -0.1)">
       <defs>
        <path id="SimHei-36" d="M 250 1612 
Q 275 1975 387 2225 
Q 500 2475 725 2850 
L 1750 4450 
L 2325 4450 
L 1275 2800 
Q 1950 2975 2350 2750 
Q 2750 2525 2887 2237 
Q 3025 1950 3037 1612 
Q 3050 1275 2937 950 
Q 2825 625 2537 362 
Q 2250 100 1737 75 
Q 1225 50 862 262 
Q 500 475 362 862 
Q 225 1250 250 1612 
z
M 1025 787 
Q 1250 550 1625 525 
Q 2000 500 2250 775 
Q 2500 1050 2500 1575 
Q 2500 2100 2187 2300 
Q 1875 2500 1487 2450 
Q 1100 2400 925 2075 
Q 750 1750 775 1387 
Q 800 1025 1025 787 
z
" transform="scale(0.015625)"/>
       </defs>
       <use xlink:href="#SimHei-36"/>
       <use xlink:href="#SimHei-30" x="50"/>
       <use xlink:href="#SimHei-30" x="100"/>
       <use xlink:href="#SimHei-30" x="150"/>
       <use xlink:href="#SimHei-30" x="200"/>
      </g>
     </g>
    </g>
    <g id="xtick_5">
     <g id="line2d_5">
      <g>
       <use xlink:href="#m58f8ae6ab6" x="390.985583" y="392.92" style="stroke: #000000; stroke-width: 0.8"/>
      </g>
     </g>
     <g id="text_5">
      <!-- 80000 -->
      <g transform="translate(378.485583 406.795) scale(0.1 -0.1)">
       <defs>
        <path id="SimHei-38" d="M 175 1375 
Q 175 1675 325 1962 
Q 475 2250 825 2425 
Q 525 2600 425 2812 
Q 325 3025 312 3300 
Q 300 3575 387 3775 
Q 475 3975 650 4150 
Q 825 4325 1037 4387 
Q 1250 4450 1500 4450 
Q 1750 4450 1950 4400 
Q 2150 4350 2375 4187 
Q 2600 4025 2700 3725 
Q 2800 3425 2687 3025 
Q 2575 2625 2100 2400 
Q 2525 2275 2700 2012 
Q 2875 1750 2875 1375 
Q 2875 1000 2762 775 
Q 2650 550 2512 400 
Q 2375 250 2137 162 
Q 1900 75 1537 75 
Q 1175 75 912 162 
Q 650 250 475 425 
Q 300 600 237 837 
Q 175 1075 175 1375 
z
M 687 1400 
Q 675 1100 787 875 
Q 900 650 1200 587 
Q 1500 525 1825 600 
Q 2150 675 2275 950 
Q 2400 1225 2362 1500 
Q 2325 1775 2050 1962 
Q 1775 2150 1450 2125 
Q 1125 2100 912 1900 
Q 700 1700 687 1400 
z
M 775 3350 
Q 775 3100 950 2875 
Q 1125 2650 1500 2650 
Q 1875 2650 2062 2875 
Q 2250 3100 2237 3412 
Q 2225 3725 2012 3875 
Q 1800 4025 1437 4000 
Q 1075 3975 925 3787 
Q 775 3600 775 3350 
z
" transform="scale(0.015625)"/>
       </defs>
       <use xlink:href="#SimHei-38"/>
       <use xlink:href="#SimHei-30" x="50"/>
       <use xlink:href="#SimHei-30" x="100"/>
       <use xlink:href="#SimHei-30" x="150"/>
       <use xlink:href="#SimHei-30" x="200"/>
      </g>
     </g>
    </g>
    <g id="xtick_6">
     <g id="line2d_6">
      <g>
       <use xlink:href="#m58f8ae6ab6" x="471.041979" y="392.92" style="stroke: #000000; stroke-width: 0.8"/>
      </g>
     </g>
     <g id="text_6">
      <!-- 100000 -->
      <g transform="translate(456.041979 406.795) scale(0.1 -0.1)">
       <defs>
        <path id="SimHei-31" d="M 1400 3600 
Q 1075 3275 575 2975 
L 575 3450 
Q 1200 3875 1600 4450 
L 1900 4450 
L 1900 150 
L 1400 150 
L 1400 3600 
z
" transform="scale(0.015625)"/>
       </defs>
       <use xlink:href="#SimHei-31"/>
       <use xlink:href="#SimHei-30" x="50"/>
       <use xlink:href="#SimHei-30" x="100"/>
       <use xlink:href="#SimHei-30" x="150"/>
       <use xlink:href="#SimHei-30" x="200"/>
       <use xlink:href="#SimHei-30" x="250"/>
      </g>
     </g>
    </g>
    <g id="xtick_7">
     <g id="line2d_7">
      <g>
       <use xlink:href="#m58f8ae6ab6" x="551.098375" y="392.92" style="stroke: #000000; stroke-width: 0.8"/>
      </g>
     </g>
     <g id="text_7">
      <!-- 120000 -->
      <g transform="translate(536.098375 406.795) scale(0.1 -0.1)">
       <use xlink:href="#SimHei-31"/>
       <use xlink:href="#SimHei-32" x="50"/>
       <use xlink:href="#SimHei-30" x="100"/>
       <use xlink:href="#SimHei-30" x="150"/>
       <use xlink:href="#SimHei-30" x="200"/>
       <use xlink:href="#SimHei-30" x="250"/>
      </g>
     </g>
    </g>
    <g id="xtick_8">
     <g id="line2d_8">
      <g>
       <use xlink:href="#m58f8ae6ab6" x="631.15477" y="392.92" style="stroke: #000000; stroke-width: 0.8"/>
      </g>
     </g>
     <g id="text_8">
      <!-- 140000 -->
      <g transform="translate(616.15477 406.795) scale(0.1 -0.1)">
       <use xlink:href="#SimHei-31"/>
       <use xlink:href="#SimHei-34" x="50"/>
       <use xlink:href="#SimHei-30" x="100"/>
       <use xlink:href="#SimHei-30" x="150"/>
       <use xlink:href="#SimHei-30" x="200"/>
       <use xlink:href="#SimHei-30" x="250"/>
      </g>
     </g>
    </g>
    <g id="text_9">
     <!-- Count -->
     <g transform="translate(375.690714 418.92) scale(0.1 -0.1)">
      <defs>
       <path id="SimHei-43" d="M 2975 1825 
Q 2950 875 2575 475 
Q 2200 75 1675 75 
Q 1075 75 650 562 
Q 225 1050 225 2125 
Q 225 3300 637 3875 
Q 1050 4450 1700 4450 
Q 2250 4450 2612 4037 
Q 2975 3625 2950 2875 
L 2400 2875 
Q 2400 3425 2225 3700 
Q 2050 3975 1700 3975 
Q 1300 3975 1062 3562 
Q 825 3150 825 2175 
Q 825 1275 1062 912 
Q 1300 550 1675 550 
Q 1950 550 2175 812 
Q 2400 1075 2400 1825 
L 2975 1825 
z
" transform="scale(0.015625)"/>
       <path id="SimHei-6f" d="M 2925 1525 
Q 2925 875 2525 475 
Q 2125 75 1575 75 
Q 1025 75 625 475 
Q 225 875 225 1525 
Q 225 2175 625 2575 
Q 1025 2975 1575 2975 
Q 2125 2975 2525 2575 
Q 2925 2175 2925 1525 
z
M 2375 1525 
Q 2375 2025 2125 2275 
Q 1875 2525 1575 2525 
Q 1275 2525 1025 2275 
Q 775 2025 775 1525 
Q 775 1025 1025 775 
Q 1275 525 1575 525 
Q 1875 525 2125 775 
Q 2375 1025 2375 1525 
z
" transform="scale(0.015625)"/>
       <path id="SimHei-75" d="M 2800 125 
L 2300 125 
L 2300 650 
Q 2100 375 1862 225 
Q 1625 75 1250 75 
Q 800 75 575 325 
Q 350 575 350 950 
L 350 2925 
L 850 2925 
L 850 1125 
Q 850 825 1000 650 
Q 1150 475 1400 475 
Q 1725 475 2012 812 
Q 2300 1150 2300 1650 
L 2300 2925 
L 2800 2925 
L 2800 125 
z
" transform="scale(0.015625)"/>
       <path id="SimHei-6e" d="M 2800 125 
L 2300 125 
L 2300 1925 
Q 2300 2225 2150 2400 
Q 2000 2575 1750 2575 
Q 1425 2575 1137 2237 
Q 850 1900 850 1400 
L 850 125 
L 350 125 
L 350 2925 
L 850 2925 
L 850 2400 
Q 1050 2675 1287 2825 
Q 1525 2975 1900 2975 
Q 2350 2975 2575 2725 
Q 2800 2475 2800 2100 
L 2800 125 
z
" transform="scale(0.015625)"/>
       <path id="SimHei-74" d="M 2750 200 
Q 2625 150 2462 112 
Q 2300 75 2025 75 
Q 1575 75 1300 325 
Q 1025 575 1025 1025 
L 1025 2525 
L 175 2525 
L 175 2925 
L 1025 2925 
L 1025 3900 
L 1525 3900 
L 1525 2925 
L 2550 2925 
L 2550 2525 
L 1525 2525 
L 1525 1000 
Q 1525 800 1625 662 
Q 1725 525 2000 525 
Q 2275 525 2450 575 
Q 2625 625 2750 700 
L 2750 200 
z
" transform="scale(0.015625)"/>
      </defs>
      <use xlink:href="#SimHei-43"/>
      <use xlink:href="#SimHei-6f" x="50"/>
      <use xlink:href="#SimHei-75" x="100"/>
      <use xlink:href="#SimHei-6e" x="150"/>
      <use xlink:href="#SimHei-74" x="200"/>
     </g>
    </g>
   </g>
   <g id="matplotlib.axis_2">
    <g id="ytick_1">
     <g id="line2d_9">
      <defs>
       <path id="ma5075759c4" d="M 0 0 
L -3.5 0 
" style="stroke: #000000; stroke-width: 0.8"/>
      </defs>
      <g>
       <use xlink:href="#ma5075759c4" x="70.76" y="363.8433" style="stroke: #000000; stroke-width: 0.8"/>
      </g>
     </g>
     <g id="text_10">
      <!-- rugz-t1 -->
      <g transform="translate(28.76 367.319862) scale(0.1 -0.1)">
       <defs>
        <path id="SimHei-72" d="M 2500 2425 
Q 2025 2500 1700 2287 
Q 1375 2075 1150 1550 
L 1150 125 
L 650 125 
L 650 2925 
L 1150 2925 
L 1150 2200 
Q 1375 2600 1712 2787 
Q 2050 2975 2500 2975 
L 2500 2425 
z
" transform="scale(0.015625)"/>
        <path id="SimHei-67" d="M 2975 2500 
Q 2800 2550 2637 2562 
Q 2475 2575 2300 2525 
Q 2375 2450 2425 2337 
Q 2475 2225 2475 2000 
Q 2475 1575 2187 1300 
Q 1900 1025 1475 1025 
Q 1375 1025 1212 1062 
Q 1050 1100 950 1150 
Q 875 1100 850 1050 
Q 825 1000 825 925 
Q 825 800 1000 737 
Q 1175 675 1625 675 
Q 2350 675 2612 475 
Q 2875 275 2875 -25 
Q 2875 -425 2487 -612 
Q 2100 -800 1575 -800 
Q 900 -800 575 -625 
Q 250 -450 250 -150 
Q 250 0 375 150 
Q 500 300 700 400 
Q 550 475 462 587 
Q 375 700 375 875 
Q 375 1025 487 1137 
Q 600 1250 750 1325 
Q 625 1450 550 1625 
Q 475 1800 475 2000 
Q 475 2425 762 2700 
Q 1050 2975 1475 2975 
Q 1700 2975 1862 2912 
Q 2025 2850 2150 2725 
Q 2350 2875 2550 2937 
Q 2750 3000 2975 2975 
L 2975 2500 
z
M 1975 2000 
Q 1975 2250 1850 2400 
Q 1725 2550 1475 2550 
Q 1225 2550 1100 2400 
Q 975 2250 975 2000 
Q 975 1750 1100 1600 
Q 1225 1450 1475 1450 
Q 1725 1450 1850 1600 
Q 1975 1750 1975 2000 
z
M 2400 -75 
Q 2400 25 2287 125 
Q 2175 225 1725 225 
Q 1625 225 1450 237 
Q 1275 250 1050 275 
Q 850 200 775 100 
Q 700 0 700 -100 
Q 700 -250 900 -350 
Q 1100 -450 1600 -450 
Q 2025 -450 2212 -337 
Q 2400 -225 2400 -75 
z
" transform="scale(0.015625)"/>
        <path id="SimHei-7a" d="M 2775 125 
L 350 125 
L 350 525 
L 2050 2525 
L 450 2525 
L 450 2925 
L 2650 2925 
L 2650 2525 
L 950 525 
L 2775 525 
L 2775 125 
z
" transform="scale(0.015625)"/>
        <path id="SimHei-2d" d="M 2975 2125 
L 125 2125 
L 125 2525 
L 2975 2525 
L 2975 2125 
z
" transform="scale(0.015625)"/>
       </defs>
       <use xlink:href="#SimHei-72"/>
       <use xlink:href="#SimHei-75" x="50"/>
       <use xlink:href="#SimHei-67" x="100"/>
       <use xlink:href="#SimHei-7a" x="150"/>
       <use xlink:href="#SimHei-2d" x="200"/>
       <use xlink:href="#SimHei-74" x="250"/>
       <use xlink:href="#SimHei-31" x="300"/>
      </g>
     </g>
    </g>
    <g id="ytick_2">
     <g id="line2d_10">
      <g>
       <use xlink:href="#ma5075759c4" x="70.76" y="332.91064" style="stroke: #000000; stroke-width: 0.8"/>
      </g>
     </g>
     <g id="text_11">
      <!-- lampz-t1 -->
      <g transform="translate(23.76 336.387202) scale(0.1 -0.1)">
       <defs>
        <path id="SimHei-6c" d="M 1825 125 
L 1325 125 
L 1325 4400 
L 1825 4400 
L 1825 125 
z
" transform="scale(0.015625)"/>
        <path id="SimHei-61" d="M 2875 125 
L 2275 125 
Q 2225 175 2200 262 
Q 2175 350 2175 475 
Q 2000 275 1750 175 
Q 1500 75 1225 75 
Q 825 75 550 275 
Q 275 475 275 850 
Q 275 1225 525 1450 
Q 775 1675 1300 1750 
Q 1650 1800 1912 1875 
Q 2175 1950 2175 2075 
Q 2175 2225 2062 2375 
Q 1950 2525 1575 2525 
Q 1275 2525 1137 2412 
Q 1000 2300 950 2100 
L 400 2100 
Q 450 2500 762 2737 
Q 1075 2975 1575 2975 
Q 2125 2975 2400 2725 
Q 2675 2475 2675 2025 
L 2675 650 
Q 2675 500 2725 375 
Q 2775 250 2875 125 
z
M 2175 1050 
L 2175 1550 
Q 2025 1500 1887 1462 
Q 1750 1425 1425 1375 
Q 1050 1325 937 1200 
Q 825 1075 825 900 
Q 825 750 937 637 
Q 1050 525 1275 525 
Q 1500 525 1762 650 
Q 2025 775 2175 1050 
z
" transform="scale(0.015625)"/>
        <path id="SimHei-6d" d="M 3050 125 
L 2550 125 
L 2550 2150 
Q 2550 2300 2500 2400 
Q 2450 2500 2300 2500 
Q 2125 2500 1975 2312 
Q 1825 2125 1825 1825 
L 1825 125 
L 1325 125 
L 1325 2150 
Q 1325 2300 1275 2400 
Q 1225 2500 1075 2500 
Q 900 2500 750 2312 
Q 600 2125 600 1825 
L 600 125 
L 100 125 
L 100 2925 
L 600 2925 
L 600 2550 
Q 725 2750 900 2862 
Q 1075 2975 1275 2975 
Q 1475 2975 1612 2862 
Q 1750 2750 1800 2550 
Q 1925 2750 2087 2862 
Q 2250 2975 2450 2975 
Q 2750 2975 2900 2812 
Q 3050 2650 3050 2350 
L 3050 125 
z
" transform="scale(0.015625)"/>
        <path id="SimHei-70" d="M 2825 1525 
Q 2825 800 2475 425 
Q 2125 50 1625 50 
Q 1350 50 1150 162 
Q 950 275 800 500 
L 800 -800 
L 300 -800 
L 300 2925 
L 800 2925 
L 800 2550 
Q 950 2775 1150 2875 
Q 1350 2975 1625 2975 
Q 2125 2975 2475 2612 
Q 2825 2250 2825 1525 
z
M 2275 1525 
Q 2275 2000 2087 2262 
Q 1900 2525 1525 2525 
Q 1225 2525 1012 2262 
Q 800 2000 800 1525 
Q 800 1050 1012 775 
Q 1225 500 1525 500 
Q 1900 500 2087 775 
Q 2275 1050 2275 1525 
z
" transform="scale(0.015625)"/>
       </defs>
       <use xlink:href="#SimHei-6c"/>
       <use xlink:href="#SimHei-61" x="50"/>
       <use xlink:href="#SimHei-6d" x="100"/>
       <use xlink:href="#SimHei-70" x="150"/>
       <use xlink:href="#SimHei-7a" x="200"/>
       <use xlink:href="#SimHei-2d" x="250"/>
       <use xlink:href="#SimHei-74" x="300"/>
       <use xlink:href="#SimHei-31" x="350"/>
      </g>
     </g>
    </g>
    <g id="ytick_3">
     <g id="line2d_11">
      <g>
       <use xlink:href="#ma5075759c4" x="70.76" y="301.97798" style="stroke: #000000; stroke-width: 0.8"/>
      </g>
     </g>
     <g id="text_12">
      <!-- rugz-t2 -->
      <g transform="translate(28.76 305.493605) scale(0.1 -0.1)">
       <use xlink:href="#SimHei-72"/>
       <use xlink:href="#SimHei-75" x="50"/>
       <use xlink:href="#SimHei-67" x="100"/>
       <use xlink:href="#SimHei-7a" x="150"/>
       <use xlink:href="#SimHei-2d" x="200"/>
       <use xlink:href="#SimHei-74" x="250"/>
       <use xlink:href="#SimHei-32" x="300"/>
      </g>
     </g>
    </g>
    <g id="ytick_4">
     <g id="line2d_12">
      <g>
       <use xlink:href="#ma5075759c4" x="70.76" y="271.04532" style="stroke: #000000; stroke-width: 0.8"/>
      </g>
     </g>
     <g id="text_13">
      <!-- lampz-t2 -->
      <g transform="translate(23.76 274.560945) scale(0.1 -0.1)">
       <use xlink:href="#SimHei-6c"/>
       <use xlink:href="#SimHei-61" x="50"/>
       <use xlink:href="#SimHei-6d" x="100"/>
       <use xlink:href="#SimHei-70" x="150"/>
       <use xlink:href="#SimHei-7a" x="200"/>
       <use xlink:href="#SimHei-2d" x="250"/>
       <use xlink:href="#SimHei-74" x="300"/>
       <use xlink:href="#SimHei-32" x="350"/>
      </g>
     </g>
    </g>
    <g id="ytick_5">
     <g id="line2d_13">
      <g>
       <use xlink:href="#ma5075759c4" x="70.76" y="240.11266" style="stroke: #000000; stroke-width: 0.8"/>
      </g>
     </g>
     <g id="text_14">
      <!-- rugz-t3 -->
      <g transform="translate(28.76 243.628285) scale(0.1 -0.1)">
       <defs>
        <path id="SimHei-33" d="M 250 1225 
L 700 1300 
Q 800 975 1025 762 
Q 1250 550 1587 562 
Q 1925 575 2125 837 
Q 2325 1100 2300 1437 
Q 2275 1775 2037 1962 
Q 1800 2150 1275 2225 
L 1275 2550 
Q 1800 2600 2037 2825 
Q 2275 3050 2250 3412 
Q 2225 3775 1925 3937 
Q 1625 4100 1287 3975 
Q 950 3850 750 3275 
L 300 3350 
Q 450 3800 712 4100 
Q 975 4400 1425 4450 
Q 1875 4500 2212 4337 
Q 2550 4175 2687 3837 
Q 2825 3500 2725 3100 
Q 2625 2700 2150 2400 
Q 2500 2250 2687 1950 
Q 2875 1650 2812 1162 
Q 2750 675 2375 375 
Q 2000 75 1525 87 
Q 1050 100 700 387 
Q 350 675 250 1225 
z
" transform="scale(0.015625)"/>
       </defs>
       <use xlink:href="#SimHei-72"/>
       <use xlink:href="#SimHei-75" x="50"/>
       <use xlink:href="#SimHei-67" x="100"/>
       <use xlink:href="#SimHei-7a" x="150"/>
       <use xlink:href="#SimHei-2d" x="200"/>
       <use xlink:href="#SimHei-74" x="250"/>
       <use xlink:href="#SimHei-33" x="300"/>
      </g>
     </g>
    </g>
    <g id="ytick_6">
     <g id="line2d_14">
      <g>
       <use xlink:href="#ma5075759c4" x="70.76" y="209.18" style="stroke: #000000; stroke-width: 0.8"/>
      </g>
     </g>
     <g id="text_15">
      <!-- rugz-t5 -->
      <g transform="translate(28.76 212.6175) scale(0.1 -0.1)">
       <defs>
        <path id="SimHei-35" d="M 550 1325 
Q 725 650 1150 575 
Q 1575 500 1837 662 
Q 2100 825 2212 1087 
Q 2325 1350 2312 1675 
Q 2300 2000 2137 2225 
Q 1975 2450 1725 2525 
Q 1475 2600 1162 2525 
Q 850 2450 650 2175 
L 225 2225 
Q 275 2375 700 4375 
L 2675 4375 
L 2675 3925 
L 1075 3925 
Q 950 3250 825 2850 
Q 1200 3025 1525 3012 
Q 1850 3000 2150 2862 
Q 2450 2725 2587 2487 
Q 2725 2250 2787 2012 
Q 2850 1775 2837 1500 
Q 2825 1225 2725 937 
Q 2625 650 2425 462 
Q 2225 275 1937 162 
Q 1650 50 1275 75 
Q 900 100 562 350 
Q 225 600 100 1200 
L 550 1325 
z
" transform="scale(0.015625)"/>
       </defs>
       <use xlink:href="#SimHei-72"/>
       <use xlink:href="#SimHei-75" x="50"/>
       <use xlink:href="#SimHei-67" x="100"/>
       <use xlink:href="#SimHei-7a" x="150"/>
       <use xlink:href="#SimHei-2d" x="200"/>
       <use xlink:href="#SimHei-74" x="250"/>
       <use xlink:href="#SimHei-35" x="300"/>
      </g>
     </g>
    </g>
    <g id="ytick_7">
     <g id="line2d_15">
      <g>
       <use xlink:href="#ma5075759c4" x="70.76" y="178.24734" style="stroke: #000000; stroke-width: 0.8"/>
      </g>
     </g>
     <g id="text_16">
      <!-- lampz-t3 -->
      <g transform="translate(23.76 181.762965) scale(0.1 -0.1)">
       <use xlink:href="#SimHei-6c"/>
       <use xlink:href="#SimHei-61" x="50"/>
       <use xlink:href="#SimHei-6d" x="100"/>
       <use xlink:href="#SimHei-70" x="150"/>
       <use xlink:href="#SimHei-7a" x="200"/>
       <use xlink:href="#SimHei-2d" x="250"/>
       <use xlink:href="#SimHei-74" x="300"/>
       <use xlink:href="#SimHei-33" x="350"/>
      </g>
     </g>
    </g>
    <g id="ytick_8">
     <g id="line2d_16">
      <g>
       <use xlink:href="#ma5075759c4" x="70.76" y="147.31468" style="stroke: #000000; stroke-width: 0.8"/>
      </g>
     </g>
     <g id="text_17">
      <!-- ? -->
      <g transform="translate(58.76 150.75218) scale(0.1 -0.1)">
       <defs>
        <path id="SimHei-3f" d="M 2725 3375 
Q 2725 3050 2575 2775 
Q 2425 2500 2175 2300 
Q 1925 2100 1825 1900 
Q 1725 1700 1725 1625 
L 1725 1450 
L 1275 1450 
L 1275 1700 
Q 1275 1925 1387 2137 
Q 1500 2350 1775 2600 
Q 1975 2775 2050 2962 
Q 2125 3150 2125 3325 
Q 2125 3650 1975 3812 
Q 1825 3975 1550 3975 
Q 1275 3975 1087 3762 
Q 900 3550 900 3075 
L 325 3075 
Q 350 3775 700 4112 
Q 1050 4450 1550 4450 
Q 2100 4450 2412 4150 
Q 2725 3850 2725 3375 
z
M 1775 125 
L 1225 125 
L 1225 725 
L 1775 725 
L 1775 125 
z
" transform="scale(0.015625)"/>
       </defs>
       <use xlink:href="#SimHei-3f"/>
      </g>
     </g>
    </g>
    <g id="ytick_9">
     <g id="line2d_17">
      <g>
       <use xlink:href="#ma5075759c4" x="70.76" y="116.38202" style="stroke: #000000; stroke-width: 0.8"/>
      </g>
     </g>
     <g id="text_18">
      <!-- rugz-t4 -->
      <g transform="translate(28.76 119.858583) scale(0.1 -0.1)">
       <use xlink:href="#SimHei-72"/>
       <use xlink:href="#SimHei-75" x="50"/>
       <use xlink:href="#SimHei-67" x="100"/>
       <use xlink:href="#SimHei-7a" x="150"/>
       <use xlink:href="#SimHei-2d" x="200"/>
       <use xlink:href="#SimHei-74" x="250"/>
       <use xlink:href="#SimHei-34" x="300"/>
      </g>
     </g>
    </g>
    <g id="ytick_10">
     <g id="line2d_18">
      <g>
       <use xlink:href="#ma5075759c4" x="70.76" y="85.44936" style="stroke: #000000; stroke-width: 0.8"/>
      </g>
     </g>
     <g id="text_19">
      <!-- lampz-t4 -->
      <g transform="translate(23.76 88.925923) scale(0.1 -0.1)">
       <use xlink:href="#SimHei-6c"/>
       <use xlink:href="#SimHei-61" x="50"/>
       <use xlink:href="#SimHei-6d" x="100"/>
       <use xlink:href="#SimHei-70" x="150"/>
       <use xlink:href="#SimHei-7a" x="200"/>
       <use xlink:href="#SimHei-2d" x="250"/>
       <use xlink:href="#SimHei-74" x="300"/>
       <use xlink:href="#SimHei-34" x="350"/>
      </g>
     </g>
    </g>
    <g id="ytick_11">
     <g id="line2d_19">
      <g>
       <use xlink:href="#ma5075759c4" x="70.76" y="54.5167" style="stroke: #000000; stroke-width: 0.8"/>
      </g>
     </g>
     <g id="text_20">
      <!-- lampz-t5 -->
      <g transform="translate(23.76 57.9542) scale(0.1 -0.1)">
       <use xlink:href="#SimHei-6c"/>
       <use xlink:href="#SimHei-61" x="50"/>
       <use xlink:href="#SimHei-6d" x="100"/>
       <use xlink:href="#SimHei-70" x="150"/>
       <use xlink:href="#SimHei-7a" x="200"/>
       <use xlink:href="#SimHei-2d" x="250"/>
       <use xlink:href="#SimHei-74" x="300"/>
       <use xlink:href="#SimHei-35" x="350"/>
      </g>
     </g>
    </g>
    <g id="text_21">
     <!-- Categories -->
     <g transform="translate(18.51 234.18) rotate(-90) scale(0.1 -0.1)">
      <defs>
       <path id="SimHei-65" d="M 2850 1075 
Q 2800 625 2450 350 
Q 2100 75 1625 75 
Q 1025 75 637 462 
Q 250 850 250 1525 
Q 250 2200 637 2587 
Q 1025 2975 1625 2975 
Q 2150 2975 2487 2637 
Q 2825 2300 2825 1525 
L 800 1525 
Q 800 975 1037 750 
Q 1275 525 1625 525 
Q 1900 525 2075 662 
Q 2250 800 2300 1075 
L 2850 1075 
z
M 2250 1925 
Q 2200 2275 2025 2412 
Q 1850 2550 1575 2550 
Q 1325 2550 1125 2412 
Q 925 2275 825 1925 
L 2250 1925 
z
" transform="scale(0.015625)"/>
       <path id="SimHei-69" d="M 1800 3725 
L 1300 3725 
L 1300 4375 
L 1800 4375 
L 1800 3725 
z
M 1800 125 
L 1300 125 
L 1300 2925 
L 1800 2925 
L 1800 125 
z
" transform="scale(0.015625)"/>
       <path id="SimHei-73" d="M 2750 900 
Q 2750 500 2437 287 
Q 2125 75 1650 75 
Q 1050 75 725 312 
Q 400 550 400 1000 
L 900 1000 
Q 900 700 1112 600 
Q 1325 500 1625 500 
Q 1925 500 2075 612 
Q 2225 725 2225 900 
Q 2225 1025 2100 1150 
Q 1975 1275 1475 1350 
Q 900 1425 687 1637 
Q 475 1850 475 2200 
Q 475 2500 762 2737 
Q 1050 2975 1600 2975 
Q 2100 2975 2387 2750 
Q 2675 2525 2675 2150 
L 2175 2150 
Q 2175 2375 2012 2462 
Q 1850 2550 1600 2550 
Q 1275 2550 1137 2437 
Q 1000 2325 1000 2175 
Q 1000 2000 1125 1900 
Q 1250 1800 1650 1750 
Q 2300 1650 2525 1437 
Q 2750 1225 2750 900 
z
" transform="scale(0.015625)"/>
      </defs>
      <use xlink:href="#SimHei-43"/>
      <use xlink:href="#SimHei-61" x="50"/>
      <use xlink:href="#SimHei-74" x="100"/>
      <use xlink:href="#SimHei-65" x="150"/>
      <use xlink:href="#SimHei-67" x="200"/>
      <use xlink:href="#SimHei-6f" x="250"/>
      <use xlink:href="#SimHei-72" x="300"/>
      <use xlink:href="#SimHei-69" x="350"/>
      <use xlink:href="#SimHei-65" x="400"/>
      <use xlink:href="#SimHei-73" x="450"/>
     </g>
    </g>
   </g>
   <g id="patch_14">
    <path d="M 70.76 392.92 
L 70.76 25.44 
" style="fill: none; stroke: #000000; stroke-width: 0.8; stroke-linejoin: miter; stroke-linecap: square"/>
   </g>
   <g id="patch_15">
    <path d="M 705.621429 392.92 
L 705.621429 25.44 
" style="fill: none; stroke: #000000; stroke-width: 0.8; stroke-linejoin: miter; stroke-linecap: square"/>
   </g>
   <g id="patch_16">
    <path d="M 70.76 392.92 
L 705.621429 392.92 
" style="fill: none; stroke: #000000; stroke-width: 0.8; stroke-linejoin: miter; stroke-linecap: square"/>
   </g>
   <g id="patch_17">
    <path d="M 70.76 25.44 
L 705.621429 25.44 
" style="fill: none; stroke: #000000; stroke-width: 0.8; stroke-linejoin: miter; stroke-linecap: square"/>
   </g>
   <g id="text_22">
    <!-- 5197 -->
    <g transform="translate(91.562654 366.6558) scale(0.1 -0.1)">
     <defs>
      <path id="SimHei-39" d="M 800 75 
Q 1350 1000 1700 1750 
Q 1075 1650 662 1912 
Q 250 2175 162 2625 
Q 75 3075 175 3437 
Q 275 3800 487 4037 
Q 700 4275 1000 4375 
Q 1300 4475 1537 4475 
Q 1775 4475 2025 4375 
Q 2275 4275 2475 4075 
Q 2675 3875 2750 3662 
Q 2825 3450 2825 3112 
Q 2825 2775 2575 2250 
Q 2325 1725 1350 75 
L 800 75 
z
M 662 2875 
Q 700 2550 937 2337 
Q 1175 2125 1450 2150 
Q 1725 2175 1887 2300 
Q 2050 2425 2200 2725 
Q 2300 3100 2250 3362 
Q 2200 3625 1987 3800 
Q 1775 3975 1525 3975 
Q 1375 4000 1137 3900 
Q 900 3800 762 3500 
Q 625 3200 662 2875 
z
" transform="scale(0.015625)"/>
      <path id="SimHei-37" d="M 850 150 
Q 1300 2050 2425 3925 
L 275 3925 
L 275 4375 
L 2950 4375 
L 2950 3950 
Q 1775 2050 1400 150 
L 850 150 
z
" transform="scale(0.015625)"/>
     </defs>
     <use xlink:href="#SimHei-35"/>
     <use xlink:href="#SimHei-31" x="50"/>
     <use xlink:href="#SimHei-39" x="100"/>
     <use xlink:href="#SimHei-37" x="150"/>
    </g>
   </g>
   <g id="text_23">
    <!-- 7956 -->
    <g transform="translate(102.606434 335.72314) scale(0.1 -0.1)">
     <use xlink:href="#SimHei-37"/>
     <use xlink:href="#SimHei-39" x="50"/>
     <use xlink:href="#SimHei-35" x="100"/>
     <use xlink:href="#SimHei-36" x="150"/>
    </g>
   </g>
   <g id="text_24">
    <!-- 12560 -->
    <g transform="translate(121.035417 304.79048) scale(0.1 -0.1)">
     <use xlink:href="#SimHei-31"/>
     <use xlink:href="#SimHei-32" x="50"/>
     <use xlink:href="#SimHei-35" x="100"/>
     <use xlink:href="#SimHei-36" x="150"/>
     <use xlink:href="#SimHei-30" x="200"/>
    </g>
   </g>
   <g id="text_25">
    <!-- 17361 -->
    <g transform="translate(140.252954 273.85782) scale(0.1 -0.1)">
     <use xlink:href="#SimHei-31"/>
     <use xlink:href="#SimHei-37" x="50"/>
     <use xlink:href="#SimHei-33" x="100"/>
     <use xlink:href="#SimHei-36" x="150"/>
     <use xlink:href="#SimHei-31" x="200"/>
    </g>
   </g>
   <g id="text_26">
    <!-- 19472 -->
    <g transform="translate(148.702907 242.92516) scale(0.1 -0.1)">
     <use xlink:href="#SimHei-31"/>
     <use xlink:href="#SimHei-39" x="50"/>
     <use xlink:href="#SimHei-34" x="100"/>
     <use xlink:href="#SimHei-37" x="150"/>
     <use xlink:href="#SimHei-32" x="200"/>
    </g>
   </g>
   <g id="text_27">
    <!-- 21639 -->
    <g transform="translate(157.377017 211.9925) scale(0.1 -0.1)">
     <use xlink:href="#SimHei-32"/>
     <use xlink:href="#SimHei-31" x="50"/>
     <use xlink:href="#SimHei-36" x="100"/>
     <use xlink:href="#SimHei-33" x="150"/>
     <use xlink:href="#SimHei-39" x="200"/>
    </g>
   </g>
   <g id="text_28">
    <!-- 33967 -->
    <g transform="translate(206.72378 181.05984) scale(0.1 -0.1)">
     <use xlink:href="#SimHei-33"/>
     <use xlink:href="#SimHei-33" x="50"/>
     <use xlink:href="#SimHei-39" x="100"/>
     <use xlink:href="#SimHei-36" x="150"/>
     <use xlink:href="#SimHei-37" x="200"/>
    </g>
   </g>
   <g id="text_29">
    <!-- 43482 -->
    <g transform="translate(244.81061 150.12718) scale(0.1 -0.1)">
     <use xlink:href="#SimHei-34"/>
     <use xlink:href="#SimHei-33" x="50"/>
     <use xlink:href="#SimHei-34" x="100"/>
     <use xlink:href="#SimHei-38" x="150"/>
     <use xlink:href="#SimHei-32" x="200"/>
    </g>
   </g>
   <g id="text_30">
    <!-- 84457 -->
    <g transform="translate(408.826151 119.19452) scale(0.1 -0.1)">
     <use xlink:href="#SimHei-38"/>
     <use xlink:href="#SimHei-34" x="50"/>
     <use xlink:href="#SimHei-34" x="100"/>
     <use xlink:href="#SimHei-35" x="150"/>
     <use xlink:href="#SimHei-37" x="200"/>
    </g>
   </g>
   <g id="text_31">
    <!-- 125226 -->
    <g transform="translate(572.017111 88.26186) scale(0.1 -0.1)">
     <use xlink:href="#SimHei-31"/>
     <use xlink:href="#SimHei-32" x="50"/>
     <use xlink:href="#SimHei-35" x="100"/>
     <use xlink:href="#SimHei-32" x="150"/>
     <use xlink:href="#SimHei-32" x="200"/>
     <use xlink:href="#SimHei-36" x="250"/>
    </g>
   </g>
   <g id="text_32">
    <!-- 151051 -->
    <g transform="translate(675.389932 57.3292) scale(0.1 -0.1)">
     <use xlink:href="#SimHei-31"/>
     <use xlink:href="#SimHei-35" x="50"/>
     <use xlink:href="#SimHei-31" x="100"/>
     <use xlink:href="#SimHei-30" x="150"/>
     <use xlink:href="#SimHei-35" x="200"/>
     <use xlink:href="#SimHei-31" x="250"/>
    </g>
   </g>
   <g id="text_33">
    <!-- KUBZ Lampz and Rugz -->
    <g transform="translate(331.190714 19.44) scale(0.12 -0.12)">
     <defs>
      <path id="SimHei-4b" d="M 3050 125 
L 2400 125 
L 1250 2250 
L 850 1725 
L 850 125 
L 275 125 
L 275 4400 
L 850 4400 
L 850 2550 
L 2275 4400 
L 2950 4400 
L 1625 2725 
L 3050 125 
z
" transform="scale(0.015625)"/>
      <path id="SimHei-55" d="M 2875 1375 
Q 2875 775 2562 425 
Q 2250 75 1575 75 
Q 900 75 587 425 
Q 275 775 275 1375 
L 275 4400 
L 850 4400 
L 850 1375 
Q 850 950 1050 750 
Q 1250 550 1575 550 
Q 1900 550 2100 750 
Q 2300 950 2300 1375 
L 2300 4400 
L 2875 4400 
L 2875 1375 
z
" transform="scale(0.015625)"/>
      <path id="SimHei-42" d="M 2950 1400 
Q 2950 675 2550 400 
Q 2150 125 1525 125 
L 275 125 
L 275 4400 
L 1575 4400 
Q 2200 4400 2512 4075 
Q 2825 3750 2825 3300 
Q 2825 2850 2612 2637 
Q 2400 2425 2175 2350 
Q 2475 2275 2712 2037 
Q 2950 1800 2950 1400 
z
M 2250 3300 
Q 2250 3625 2062 3775 
Q 1875 3925 1600 3925 
L 850 3925 
L 850 2600 
L 1575 2600 
Q 1850 2600 2050 2762 
Q 2250 2925 2250 3300 
z
M 2350 1400 
Q 2350 1800 2087 1962 
Q 1825 2125 1500 2125 
L 850 2125 
L 850 600 
L 1425 600 
Q 1875 600 2112 775 
Q 2350 950 2350 1400 
z
" transform="scale(0.015625)"/>
      <path id="SimHei-5a" d="M 2900 125 
L 225 125 
L 225 600 
L 2250 3925 
L 375 3925 
L 375 4400 
L 2825 4400 
L 2825 3925 
L 800 600 
L 2900 600 
L 2900 125 
z
" transform="scale(0.015625)"/>
      <path id="SimHei-20" transform="scale(0.015625)"/>
      <path id="SimHei-4c" d="M 2900 125 
L 300 125 
L 300 4400 
L 875 4400 
L 875 600 
L 2900 600 
L 2900 125 
z
" transform="scale(0.015625)"/>
      <path id="SimHei-64" d="M 2750 125 
L 2250 125 
L 2250 500 
Q 2100 275 1900 175 
Q 1700 75 1425 75 
Q 925 75 575 437 
Q 225 800 225 1525 
Q 225 2250 575 2625 
Q 925 3000 1425 3000 
Q 1700 3000 1900 2887 
Q 2100 2775 2250 2550 
L 2250 4400 
L 2750 4400 
L 2750 125 
z
M 2250 1525 
Q 2250 2000 2037 2275 
Q 1825 2550 1525 2550 
Q 1150 2550 962 2275 
Q 775 2000 775 1525 
Q 775 1050 962 787 
Q 1150 525 1525 525 
Q 1825 525 2037 787 
Q 2250 1050 2250 1525 
z
" transform="scale(0.015625)"/>
      <path id="SimHei-52" d="M 3000 125 
L 2400 125 
L 1500 1975 
L 850 1975 
L 850 125 
L 275 125 
L 275 4400 
L 1525 4400 
Q 2125 4400 2500 4112 
Q 2875 3825 2875 3175 
Q 2875 2675 2625 2400 
Q 2375 2125 2050 2050 
L 3000 125 
z
M 2300 3175 
Q 2300 3525 2087 3725 
Q 1875 3925 1400 3925 
L 850 3925 
L 850 2450 
L 1550 2450 
Q 1850 2450 2075 2612 
Q 2300 2775 2300 3175 
z
" transform="scale(0.015625)"/>
     </defs>
     <use xlink:href="#SimHei-4b"/>
     <use xlink:href="#SimHei-55" x="50"/>
     <use xlink:href="#SimHei-42" x="100"/>
     <use xlink:href="#SimHei-5a" x="150"/>
     <use xlink:href="#SimHei-20" x="200"/>
     <use xlink:href="#SimHei-4c" x="250"/>
     <use xlink:href="#SimHei-61" x="300"/>
     <use xlink:href="#SimHei-6d" x="350"/>
     <use xlink:href="#SimHei-70" x="400"/>
     <use xlink:href="#SimHei-7a" x="450"/>
     <use xlink:href="#SimHei-20" x="500"/>
     <use xlink:href="#SimHei-61" x="550"/>
     <use xlink:href="#SimHei-6e" x="600"/>
     <use xlink:href="#SimHei-64" x="650"/>
     <use xlink:href="#SimHei-20" x="700"/>
     <use xlink:href="#SimHei-52" x="750"/>
     <use xlink:href="#SimHei-75" x="800"/>
     <use xlink:href="#SimHei-67" x="850"/>
     <use xlink:href="#SimHei-7a" x="900"/>
    </g>
   </g>
  </g>
 </g>
 <defs>
  <clipPath id="pe0fe748706">
   <rect x="70.76" y="25.44" width="634.861429" height="367.48"/>
  </clipPath>
 </defs>
</svg>
